<svg xmlns="http://www.w3.org/2000/svg" xmlns:xlink="http://www.w3.org/1999/xlink" width="2000" zoomAndPan="magnify" viewBox="0 0 1500 1499.999933" height="2000" preserveAspectRatio="xMidYMid meet" version="1.0"><defs><clipPath id="d9302c83bf"><path d="M 750 0 C 335.785156 0 0 335.785156 0 750 C 0 1164.214844 335.785156 1500 750 1500 C 1164.214844 1500 1500 1164.214844 1500 750 C 1500 335.785156 1164.214844 0 750 0 Z M 750 0 " clip-rule="nonzero"/></clipPath><clipPath id="058ca21520"><path d="M 0 0 L 1500 0 L 1500 1500 L 0 1500 Z M 0 0 " clip-rule="nonzero"/></clipPath><clipPath id="1b9b43aa2e"><path d="M 750 0 C 335.785156 0 0 335.785156 0 750 C 0 1164.214844 335.785156 1500 750 1500 C 1164.214844 1500 1500 1164.214844 1500 750 C 1500 335.785156 1164.214844 0 750 0 Z M 750 0 " clip-rule="nonzero"/></clipPath><clipPath id="46ee819cb5"><rect x="0" width="1500" y="0" height="1500"/></clipPath><clipPath id="a9795a40cb"><path d="M 188 939.996094 L 1312 939.996094 L 1312 1310.496094 L 188 1310.496094 Z M 188 939.996094 " clip-rule="nonzero"/></clipPath><clipPath id="18292ef652"><path d="M 294 227 L 1206 227 L 1206 813.824219 L 294 813.824219 Z M 294 227 " clip-rule="nonzero"/></clipPath></defs><g clip-path="url(#d9302c83bf)"><g transform="matrix(1, 0, 0, 1, 0, 0.000000000000112861)"><g clip-path="url(#46ee819cb5)"><g clip-path="url(#058ca21520)"><g clip-path="url(#1b9b43aa2e)"><rect x="-330" width="2160" fill="#bc002d" height="2159.999904" y="-329.999985" fill-opacity="1"/></g></g></g></g></g><g clip-path="url(#a9795a40cb)"><path fill="#ffffff" d="M 193.152344 941.773438 C 192.164062 942.757812 191.308594 944.207031 191.308594 945.0625 C 191.308594 945.851562 190.585938 947.164062 189.664062 948.019531 C 188.023438 949.464844 188.023438 949.664062 188.023438 958.671875 C 188.023438 967.484375 188.085938 968.011719 189.664062 970.183594 C 190.585938 971.429688 191.308594 973.074219 191.308594 973.800781 C 191.308594 974.523438 191.902344 975.507812 192.625 975.96875 C 193.480469 976.429688 193.941406 977.480469 193.941406 978.730469 C 193.941406 980.046875 194.378906 980.921875 195.253906 981.363281 C 196.132812 981.800781 196.570312 982.675781 196.570312 983.992188 C 196.570312 985.242188 197.03125 986.292969 197.886719 986.820312 C 198.675781 987.28125 199.203125 988.332031 199.203125 989.253906 C 199.203125 990.171875 199.925781 991.621094 200.84375 992.542969 C 201.765625 993.460938 202.488281 994.777344 202.488281 995.5 C 202.488281 996.222656 203.609375 998 205.054688 999.445312 C 206.433594 1000.894531 208.34375 1003.390625 209.199219 1005.035156 C 210.050781 1006.679688 212.550781 1009.769531 214.65625 1011.941406 C 216.824219 1014.109375 219.257812 1016.875 220.046875 1017.992188 C 220.902344 1019.175781 221.5625 1020.359375 221.5625 1020.6875 C 221.496094 1020.949219 224.847656 1024.566406 228.925781 1028.777344 C 233.003906 1032.984375 238.265625 1037.984375 240.632812 1039.824219 C 243 1041.730469 245.039062 1043.242188 245.234375 1043.179688 C 245.433594 1043.179688 248.0625 1045.546875 251.152344 1048.4375 C 254.246094 1051.332031 257.269531 1053.699219 257.863281 1053.699219 C 258.519531 1053.699219 261.019531 1055.605469 263.453125 1057.976562 C 265.949219 1060.34375 268.515625 1062.25 269.238281 1062.25 C 269.960938 1062.25 271.933594 1063.628906 273.644531 1065.207031 C 275.421875 1066.851562 277.261719 1068.167969 277.789062 1068.167969 C 278.3125 1068.167969 279.433594 1068.757812 280.222656 1069.484375 C 281.074219 1070.273438 282.324219 1071.457031 283.046875 1072.113281 C 283.773438 1072.835938 284.957031 1073.429688 285.679688 1073.429688 C 286.402344 1073.429688 288.242188 1074.613281 289.757812 1076.058594 C 291.335938 1077.507812 293.175781 1078.691406 293.898438 1078.691406 C 294.621094 1078.691406 296.003906 1079.414062 296.988281 1080.332031 C 298.042969 1081.253906 299.226562 1082.042969 299.621094 1081.976562 C 300.082031 1081.976562 301.921875 1083.160156 303.765625 1084.609375 C 305.539062 1086.054688 307.511719 1087.238281 308.039062 1087.238281 C 308.5625 1087.238281 309.945312 1087.960938 310.996094 1088.882812 C 312.050781 1089.804688 313.496094 1090.527344 314.089844 1090.527344 C 314.746094 1090.460938 315.734375 1090.988281 316.324219 1091.644531 C 316.917969 1092.300781 319.414062 1093.816406 321.78125 1095 C 324.148438 1096.117188 326.253906 1097.433594 326.453125 1097.761719 C 326.648438 1098.15625 327.371094 1098.417969 328.097656 1098.417969 C 328.820312 1098.417969 330.199219 1099.011719 331.1875 1099.734375 C 332.238281 1100.523438 333.421875 1101.113281 333.816406 1101.050781 C 334.277344 1101.050781 335.328125 1101.773438 336.117188 1102.691406 C 337.039062 1103.746094 338.289062 1104.335938 339.40625 1104.335938 C 340.589844 1104.335938 341.511719 1104.796875 341.90625 1105.652344 C 342.300781 1106.507812 343.222656 1106.96875 344.339844 1106.96875 C 345.390625 1106.902344 346.773438 1107.558594 347.496094 1108.28125 C 348.21875 1109.007812 349.402344 1109.597656 350.125 1109.597656 C 350.847656 1109.597656 352.035156 1110.191406 352.757812 1110.914062 C 353.480469 1111.636719 354.664062 1112.230469 355.386719 1112.230469 C 356.109375 1112.230469 357.425781 1112.753906 358.347656 1113.414062 C 359.265625 1114.136719 361.042969 1114.925781 362.292969 1115.1875 C 363.542969 1115.449219 365.316406 1116.238281 366.238281 1116.964844 C 367.160156 1117.621094 368.671875 1118.214844 369.65625 1118.148438 C 370.839844 1118.148438 371.761719 1118.609375 372.15625 1119.460938 C 372.550781 1120.316406 373.472656 1120.777344 374.589844 1120.777344 C 375.640625 1120.710938 377.023438 1121.371094 377.746094 1122.09375 C 378.46875 1122.816406 379.71875 1123.472656 380.507812 1123.410156 C 381.363281 1123.410156 382.546875 1123.933594 383.140625 1124.65625 C 383.796875 1125.316406 385.375 1126.039062 386.625 1126.300781 C 387.875 1126.566406 389.386719 1127.15625 389.914062 1127.75 C 390.4375 1128.273438 392.214844 1128.933594 393.726562 1129.195312 C 395.304688 1129.457031 397.082031 1130.183594 397.671875 1130.839844 C 398.328125 1131.496094 399.578125 1132.023438 400.566406 1131.957031 C 401.75 1131.957031 402.671875 1132.417969 403.066406 1133.273438 C 403.589844 1134.324219 404.378906 1134.585938 407.011719 1134.585938 C 409.445312 1134.585938 410.496094 1134.917969 411.089844 1135.773438 C 411.546875 1136.429688 412.996094 1137.21875 414.246094 1137.480469 C 415.492188 1137.746094 417.007812 1138.402344 417.53125 1138.929688 C 418.058594 1139.453125 419.964844 1140.113281 421.742188 1140.375 C 423.78125 1140.636719 425.09375 1141.230469 425.488281 1142.019531 C 425.949219 1142.875 426.871094 1143.136719 429.171875 1143.136719 C 431.539062 1143.070312 432.65625 1143.464844 433.644531 1144.453125 C 434.367188 1145.175781 435.683594 1145.765625 436.605469 1145.765625 C 437.523438 1145.765625 439.035156 1146.292969 440.023438 1147.082031 C 441.074219 1147.804688 442.652344 1148.398438 443.640625 1148.398438 C 444.691406 1148.398438 446.863281 1149.121094 448.574219 1150.042969 C 450.347656 1150.960938 452.519531 1151.6875 453.503906 1151.6875 C 454.558594 1151.6875 455.804688 1152.144531 456.332031 1152.671875 C 456.859375 1153.199219 458.964844 1153.921875 460.9375 1154.183594 C 462.910156 1154.449219 465.277344 1155.171875 466.195312 1155.828125 C 467.117188 1156.421875 468.761719 1156.945312 469.8125 1156.945312 C 470.867188 1156.945312 472.707031 1157.539062 473.757812 1158.261719 C 474.8125 1158.984375 476.652344 1159.578125 477.707031 1159.578125 C 478.757812 1159.578125 480.597656 1160.167969 481.652344 1160.828125 C 482.703125 1161.550781 485.398438 1162.273438 487.570312 1162.535156 C 489.738281 1162.867188 492.238281 1163.589844 493.160156 1164.3125 C 494.144531 1165.035156 495.855469 1165.5625 497.238281 1165.496094 C 498.75 1165.496094 500.460938 1166.023438 501.511719 1166.8125 C 502.738281 1167.730469 504.339844 1168.171875 506.3125 1168.125 C 508.085938 1168.125 510.058594 1168.652344 511.242188 1169.375 C 512.492188 1170.097656 514.859375 1170.691406 517.558594 1170.824219 C 520.582031 1171.019531 522.359375 1171.414062 523.148438 1172.269531 C 523.9375 1172.992188 525.976562 1173.585938 528.867188 1173.914062 C 531.894531 1174.21875 533.757812 1174.769531 534.457031 1175.558594 C 535.203125 1176.347656 536.496094 1176.71875 538.339844 1176.675781 C 539.917969 1176.675781 542.21875 1177.265625 543.597656 1177.992188 C 545.441406 1178.976562 547.347656 1179.304688 550.703125 1179.304688 C 554.449219 1179.242188 555.566406 1179.503906 556.621094 1180.554688 C 557.605469 1181.542969 558.988281 1181.9375 562.277344 1182.066406 C 565.367188 1182.199219 567.078125 1182.59375 567.867188 1183.382812 C 568.65625 1184.171875 570.757812 1184.699219 573.71875 1184.960938 C 576.28125 1185.226562 578.78125 1185.816406 579.308594 1186.34375 C 579.898438 1186.867188 582.53125 1187.394531 586.214844 1187.65625 C 590.289062 1187.921875 592.527344 1188.382812 593.382812 1189.105469 C 594.234375 1189.828125 596.339844 1190.289062 600.351562 1190.484375 C 604.035156 1190.683594 606.46875 1191.144531 607.257812 1191.800781 C 607.980469 1192.394531 610.675781 1192.984375 614.097656 1193.246094 C 617.515625 1193.511719 620.148438 1194.101562 620.738281 1194.695312 C 621.394531 1195.285156 624.09375 1195.746094 628.628906 1196.074219 C 633.167969 1196.402344 636.0625 1196.929688 637.179688 1197.652344 C 638.296875 1198.441406 640.730469 1198.773438 646.058594 1198.96875 C 651.582031 1199.101562 653.554688 1199.429688 654.539062 1200.285156 C 655.460938 1201.074219 657.632812 1201.402344 664.40625 1201.730469 C 670.652344 1201.992188 673.546875 1202.386719 674.992188 1203.175781 C 676.570312 1204.03125 678.804688 1204.296875 685.515625 1204.296875 C 691.695312 1204.363281 694.785156 1204.625 696.695312 1205.414062 C 698.535156 1206.136719 703.136719 1206.597656 712.476562 1206.992188 C 722.472656 1207.453125 726.351562 1207.847656 728.589844 1208.703125 C 731.351562 1209.820312 735.757812 1209.886719 792.378906 1209.886719 C 850.578125 1209.886719 853.339844 1209.820312 856.167969 1208.636719 C 858.667969 1207.582031 861.363281 1207.320312 873.921875 1207.058594 C 886.746094 1206.792969 889.050781 1206.597656 891.023438 1205.546875 C 892.996094 1204.492188 894.769531 1204.296875 902.859375 1204.296875 C 911.144531 1204.296875 912.722656 1204.097656 914.828125 1202.980469 C 916.867188 1201.929688 918.574219 1201.664062 924.363281 1201.664062 C 930.085938 1201.664062 931.792969 1201.46875 933.109375 1200.546875 C 934.425781 1199.625 936.59375 1199.296875 943.039062 1199.035156 C 949.417969 1198.769531 951.65625 1198.441406 952.574219 1197.652344 C 953.429688 1196.929688 955.730469 1196.46875 960.070312 1196.140625 C 964.675781 1195.878906 966.847656 1195.417969 968.292969 1194.429688 C 969.804688 1193.445312 971.449219 1193.183594 975.527344 1193.117188 C 979.667969 1193.117188 981.246094 1192.851562 982.761719 1191.800781 C 984.273438 1190.8125 985.851562 1190.484375 989.664062 1190.484375 C 993.609375 1190.550781 994.925781 1190.289062 996.371094 1189.171875 C 997.753906 1188.183594 999.199219 1187.855469 1002.292969 1187.855469 C 1005.449219 1187.921875 1006.699219 1187.59375 1007.550781 1186.738281 C 1008.339844 1185.816406 1010.050781 1185.488281 1014.457031 1185.160156 C 1018.140625 1184.894531 1020.835938 1184.371094 1021.890625 1183.710938 C 1022.808594 1183.121094 1025.441406 1182.398438 1027.808594 1182.199219 C 1030.371094 1181.9375 1032.738281 1181.214844 1033.726562 1180.488281 C 1034.910156 1179.632812 1036.421875 1179.304688 1038.988281 1179.304688 C 1041.816406 1179.371094 1042.867188 1179.042969 1043.917969 1177.992188 C 1044.972656 1176.871094 1046.023438 1176.609375 1049.640625 1176.675781 C 1052.996094 1176.675781 1054.574219 1176.347656 1055.886719 1175.425781 C 1056.941406 1174.769531 1059.375 1173.980469 1061.347656 1173.78125 C 1063.386719 1173.519531 1065.488281 1172.859375 1066.210938 1172.203125 C 1066.9375 1171.480469 1068.777344 1171.019531 1071.144531 1170.824219 C 1073.316406 1170.691406 1075.355469 1170.164062 1076.078125 1169.507812 C 1076.800781 1168.847656 1078.707031 1168.390625 1081.007812 1168.257812 C 1083.640625 1168.125 1085.085938 1167.730469 1086.007812 1166.746094 C 1086.929688 1165.824219 1088.175781 1165.429688 1090.414062 1165.496094 C 1092.914062 1165.496094 1093.703125 1165.234375 1094.226562 1164.179688 C 1094.753906 1163.128906 1095.542969 1162.863281 1097.976562 1162.863281 C 1100.144531 1162.929688 1101.660156 1162.46875 1102.777344 1161.617188 C 1103.699219 1160.890625 1105.734375 1160.101562 1107.378906 1159.839844 C 1109.089844 1159.578125 1110.667969 1158.855469 1111.128906 1158.128906 C 1111.71875 1157.339844 1112.773438 1156.945312 1114.417969 1156.945312 C 1115.929688 1157.011719 1117.640625 1156.484375 1118.691406 1155.632812 C 1119.742188 1154.90625 1121.320312 1154.316406 1122.308594 1154.316406 C 1123.425781 1154.316406 1124.476562 1153.789062 1124.9375 1153 C 1125.464844 1152.277344 1126.515625 1151.683594 1127.4375 1151.683594 C 1128.359375 1151.683594 1130.460938 1150.960938 1132.171875 1150.042969 C 1133.949219 1149.121094 1135.921875 1148.398438 1136.644531 1148.398438 C 1137.367188 1148.398438 1138.484375 1147.804688 1139.078125 1147.082031 C 1139.734375 1146.359375 1140.917969 1145.765625 1141.707031 1145.765625 C 1142.5625 1145.832031 1143.8125 1145.175781 1144.535156 1144.453125 C 1145.257812 1143.726562 1146.640625 1143.070312 1147.625 1143.136719 C 1148.746094 1143.136719 1149.730469 1142.675781 1150.058594 1142.019531 C 1150.453125 1141.230469 1151.769531 1140.636719 1153.808594 1140.375 C 1155.582031 1140.113281 1157.492188 1139.453125 1158.015625 1138.925781 C 1158.542969 1138.402344 1159.859375 1137.742188 1160.976562 1137.546875 C 1162.09375 1137.347656 1163.539062 1136.625 1164.265625 1135.835938 C 1165.183594 1134.980469 1166.433594 1134.585938 1168.210938 1134.585938 C 1170.050781 1134.585938 1171.234375 1134.191406 1172.15625 1133.273438 C 1172.878906 1132.546875 1174.195312 1131.957031 1175.113281 1131.957031 C 1176.035156 1131.957031 1177.351562 1131.363281 1178.074219 1130.640625 C 1178.996094 1129.722656 1180.179688 1129.328125 1182.019531 1129.328125 C 1183.730469 1129.328125 1185.046875 1128.933594 1185.703125 1128.207031 C 1186.359375 1127.550781 1188.136719 1126.761719 1189.648438 1126.5 C 1191.226562 1126.167969 1193.332031 1125.378906 1194.316406 1124.65625 C 1195.371094 1124 1196.816406 1123.40625 1197.605469 1123.40625 C 1198.460938 1123.472656 1199.710938 1122.816406 1200.433594 1122.09375 C 1201.15625 1121.371094 1202.472656 1120.710938 1203.394531 1120.777344 C 1204.3125 1120.777344 1205.890625 1120.183594 1207.011719 1119.460938 C 1208.128906 1118.738281 1209.96875 1118.148438 1211.085938 1118.148438 C 1212.535156 1118.148438 1213.519531 1117.707031 1214.046875 1116.832031 C 1214.636719 1115.910156 1215.625 1115.515625 1217.335938 1115.515625 C 1218.714844 1115.515625 1220.03125 1115.910156 1220.292969 1116.371094 C 1220.558594 1116.765625 1220.292969 1117.292969 1219.769531 1117.488281 C 1219.242188 1117.621094 1216.941406 1119.660156 1214.574219 1121.894531 C 1212.203125 1124.195312 1209.773438 1126.039062 1209.113281 1126.039062 C 1208.523438 1126.039062 1206.023438 1127.945312 1203.523438 1130.3125 C 1200.828125 1132.941406 1198.527344 1134.585938 1197.605469 1134.585938 C 1196.75 1134.585938 1195.039062 1135.769531 1193.332031 1137.546875 C 1191.820312 1139.191406 1190.109375 1140.507812 1189.582031 1140.507812 C 1189.054688 1140.507812 1187.871094 1141.03125 1187.019531 1141.625 C 1186.164062 1142.28125 1184.058594 1144.1875 1182.28125 1145.964844 C 1180.507812 1147.675781 1178.535156 1149.054688 1177.878906 1149.054688 C 1177.285156 1149.054688 1174.917969 1150.832031 1172.617188 1153 C 1170.378906 1155.171875 1167.945312 1156.945312 1167.222656 1156.945312 C 1166.5 1156.945312 1163.933594 1158.789062 1161.566406 1161.089844 C 1159.136719 1163.324219 1155.847656 1165.957031 1154.136719 1166.941406 C 1152.492188 1167.929688 1149.335938 1170.492188 1147.167969 1172.664062 C 1144.996094 1174.832031 1142.890625 1176.609375 1142.5625 1176.675781 C 1142.234375 1176.675781 1140.722656 1177.53125 1139.339844 1178.515625 C 1137.894531 1179.503906 1132.765625 1184.238281 1127.832031 1189.105469 C 1122.898438 1193.972656 1118.035156 1198.3125 1116.914062 1198.707031 C 1115.796875 1199.164062 1111.261719 1203.113281 1106.722656 1207.519531 C 1102.183594 1211.925781 1098.171875 1215.476562 1097.84375 1215.476562 C 1097.515625 1215.476562 1096.132812 1216.199219 1094.886719 1217.117188 C 1093.636719 1218.039062 1090.214844 1221.128906 1087.324219 1223.894531 C 1084.429688 1226.71875 1081.273438 1229.351562 1080.21875 1229.8125 C 1079.234375 1230.273438 1076.144531 1232.769531 1073.316406 1235.402344 C 1070.554688 1237.964844 1067.265625 1240.792969 1066.082031 1241.648438 C 1064.964844 1242.4375 1063.648438 1243.09375 1063.320312 1243.09375 C 1062.992188 1243.09375 1060.164062 1245.59375 1057.070312 1248.683594 C 1053.980469 1251.777344 1050.824219 1254.40625 1049.96875 1254.605469 C 1049.179688 1254.800781 1045.234375 1258.023438 1041.289062 1261.835938 C 1037.34375 1265.652344 1033.726562 1268.742188 1033.398438 1268.742188 C 1033.070312 1268.742188 1030.304688 1271.109375 1027.28125 1274.003906 C 1024.058594 1277.09375 1021.890625 1279.789062 1021.890625 1280.578125 C 1021.890625 1281.304688 1021.363281 1282.421875 1020.769531 1283.078125 C 1019.914062 1283.933594 1019.585938 1285.710938 1019.390625 1290.445312 C 1019.191406 1295.96875 1019.257812 1296.890625 1020.507812 1298.53125 C 1021.296875 1299.519531 1021.890625 1301.03125 1021.890625 1301.953125 C 1021.890625 1302.875 1022.414062 1304.121094 1023.007812 1304.714844 C 1023.664062 1305.304688 1024.519531 1306.6875 1024.847656 1307.804688 C 1025.503906 1309.777344 1025.636719 1309.84375 1030.109375 1310.042969 C 1034.054688 1310.238281 1034.910156 1310.042969 1036.027344 1308.859375 C 1036.75 1308.132812 1038.066406 1307.542969 1038.988281 1307.542969 C 1039.90625 1307.542969 1040.960938 1307.015625 1041.421875 1306.226562 C 1041.945312 1305.371094 1043 1304.910156 1044.246094 1304.910156 C 1045.5625 1304.910156 1046.441406 1304.472656 1046.878906 1303.597656 C 1047.316406 1302.71875 1048.195312 1302.28125 1049.507812 1302.28125 C 1050.691406 1302.28125 1051.8125 1301.820312 1052.269531 1301.03125 C 1052.730469 1300.308594 1053.980469 1299.585938 1055.097656 1299.320312 C 1056.214844 1299.058594 1057.664062 1298.335938 1058.386719 1297.679688 C 1059.109375 1297.085938 1061.015625 1295.769531 1062.660156 1294.851562 C 1064.304688 1293.929688 1066.082031 1292.679688 1066.605469 1292.089844 C 1067.132812 1291.496094 1068.25 1291.035156 1069.039062 1291.101562 C 1069.894531 1291.101562 1071.671875 1289.917969 1073.378906 1288.140625 C 1075.355469 1286.167969 1076.910156 1285.183594 1078.050781 1285.183594 C 1078.96875 1285.183594 1079.957031 1284.722656 1080.21875 1284.195312 C 1080.546875 1283.671875 1081.46875 1282.75 1082.390625 1282.222656 C 1083.3125 1281.699219 1084.890625 1280.84375 1086.007812 1280.316406 C 1087.125 1279.789062 1088.570312 1278.738281 1089.296875 1278.015625 C 1090.019531 1277.226562 1091.203125 1276.632812 1091.925781 1276.632812 C 1092.648438 1276.632812 1094.425781 1275.449219 1095.871094 1274.003906 C 1097.515625 1272.359375 1099.09375 1271.371094 1100.144531 1271.371094 C 1101.199219 1271.371094 1102.578125 1270.453125 1104.089844 1268.742188 C 1105.472656 1267.164062 1106.984375 1266.113281 1107.839844 1266.113281 C 1108.695312 1266.113281 1110.601562 1264.929688 1112.113281 1263.480469 C 1113.691406 1261.96875 1115.664062 1260.589844 1116.585938 1260.390625 C 1117.507812 1260.195312 1119.546875 1258.878906 1121.191406 1257.496094 C 1122.835938 1256.117188 1124.609375 1254.933594 1125.136719 1254.933594 C 1125.660156 1254.933594 1126.84375 1254.210938 1127.765625 1253.289062 C 1128.6875 1252.367188 1130.132812 1251.644531 1131.054688 1251.644531 C 1131.976562 1251.644531 1133.027344 1251.117188 1133.421875 1250.527344 C 1133.816406 1249.867188 1135.855469 1248.488281 1137.894531 1247.371094 C 1139.933594 1246.25 1141.773438 1245.003906 1141.90625 1244.609375 C 1142.101562 1244.148438 1143.21875 1243.554688 1144.339844 1243.359375 C 1145.585938 1243.09375 1147.691406 1241.78125 1149.140625 1240.398438 C 1150.585938 1238.953125 1152.363281 1237.835938 1153.085938 1237.835938 C 1153.808594 1237.835938 1155.582031 1236.652344 1157.03125 1235.203125 C 1158.476562 1233.757812 1160.382812 1232.441406 1161.304688 1232.246094 C 1162.226562 1232.046875 1164.726562 1230.207031 1166.894531 1228.101562 C 1169.066406 1225.996094 1171.5625 1224.089844 1172.484375 1223.890625 C 1173.40625 1223.628906 1176.496094 1221.128906 1179.390625 1218.300781 C 1182.285156 1215.476562 1185.242188 1212.84375 1185.964844 1212.382812 C 1186.6875 1211.921875 1188.003906 1211.199219 1188.925781 1210.738281 C 1189.847656 1210.34375 1193.066406 1207.453125 1196.160156 1204.425781 C 1199.25 1201.335938 1203.0625 1198.113281 1204.707031 1197.191406 C 1206.351562 1196.273438 1211.21875 1192.0625 1215.558594 1187.789062 C 1219.898438 1183.515625 1225.226562 1178.714844 1227.394531 1177.070312 C 1229.566406 1175.359375 1231.605469 1174.042969 1231.867188 1174.042969 C 1232.195312 1174.042969 1240.878906 1165.496094 1251.269531 1155.039062 C 1261.660156 1144.648438 1271.390625 1134.71875 1272.902344 1133.007812 C 1274.480469 1131.363281 1275.730469 1129.589844 1275.730469 1129.195312 C 1275.664062 1128.734375 1278.230469 1125.578125 1281.320312 1122.289062 C 1284.414062 1118.9375 1286.910156 1115.777344 1286.910156 1115.382812 C 1286.84375 1114.925781 1287.503906 1113.9375 1288.226562 1113.214844 C 1288.949219 1112.492188 1289.542969 1111.765625 1289.542969 1111.570312 C 1289.542969 1111.371094 1290.726562 1109.925781 1292.171875 1108.28125 C 1293.617188 1106.636719 1294.800781 1104.796875 1294.800781 1104.203125 C 1294.800781 1103.546875 1295.527344 1102.363281 1296.445312 1101.574219 C 1297.367188 1100.652344 1298.023438 1099.339844 1298.089844 1098.285156 C 1298.089844 1097.101562 1298.550781 1096.183594 1299.40625 1095.789062 C 1300.28125 1095.347656 1300.722656 1094.472656 1300.722656 1093.15625 C 1300.722656 1091.90625 1301.183594 1090.855469 1302.035156 1090.394531 C 1302.761719 1089.933594 1303.351562 1088.882812 1303.351562 1088.09375 C 1303.351562 1087.238281 1304.074219 1085.726562 1304.996094 1084.609375 C 1305.917969 1083.554688 1306.640625 1081.976562 1306.640625 1081.1875 C 1306.640625 1080.332031 1307.101562 1079.214844 1307.691406 1078.6875 C 1308.21875 1078.164062 1308.875 1075.859375 1309.140625 1073.691406 C 1309.402344 1071.324219 1310.058594 1069.085938 1310.71875 1068.429688 C 1311.703125 1067.378906 1311.902344 1065.800781 1311.902344 1058.632812 C 1311.964844 1050.804688 1311.835938 1049.949219 1310.585938 1048.765625 C 1309.863281 1048.042969 1309.269531 1046.730469 1309.269531 1045.808594 C 1309.269531 1044.886719 1308.808594 1043.703125 1308.152344 1043.046875 C 1307.496094 1042.453125 1306.773438 1040.480469 1306.441406 1038.640625 C 1305.980469 1035.417969 1305.652344 1034.957031 1296.90625 1026.40625 C 1291.25 1020.753906 1287.4375 1017.464844 1286.582031 1017.53125 C 1285.859375 1017.53125 1284.082031 1016.347656 1282.636719 1014.898438 C 1281.125 1013.320312 1279.414062 1012.269531 1278.492188 1012.269531 C 1277.703125 1012.269531 1276.390625 1011.546875 1275.535156 1010.625 C 1274.746094 1009.636719 1273.363281 1008.980469 1272.445312 1008.980469 C 1271.523438 1008.980469 1270.472656 1008.453125 1269.945312 1007.664062 C 1269.484375 1006.8125 1268.433594 1006.351562 1267.183594 1006.351562 C 1265.867188 1006.351562 1264.992188 1005.910156 1264.550781 1005.035156 C 1264.15625 1004.179688 1263.238281 1003.71875 1262.054688 1003.71875 C 1261.066406 1003.785156 1259.6875 1003.128906 1258.960938 1002.40625 C 1258.238281 1001.679688 1257.054688 1001.089844 1256.332031 1001.089844 C 1255.609375 1001.089844 1254.292969 1000.5625 1253.371094 999.839844 C 1252.453125 999.117188 1250.414062 998.328125 1248.835938 998 C 1247.324219 997.734375 1245.546875 996.945312 1244.890625 996.289062 C 1244.296875 995.632812 1242.980469 995.171875 1241.863281 995.171875 C 1240.679688 995.171875 1239.429688 994.644531 1238.707031 993.855469 C 1237.917969 992.933594 1236.800781 992.539062 1234.628906 992.539062 C 1232.328125 992.539062 1231.539062 992.277344 1231.011719 991.226562 C 1230.488281 990.171875 1229.699219 989.910156 1227.199219 989.910156 C 1225.027344 989.976562 1223.78125 989.582031 1222.988281 988.792969 C 1222.398438 988.070312 1220.621094 987.476562 1218.648438 987.28125 C 1216.347656 987.082031 1214.902344 986.492188 1213.980469 985.503906 C 1212.929688 984.386719 1211.875 983.992188 1209.640625 983.992188 C 1207.667969 983.992188 1206.089844 983.53125 1204.839844 982.675781 C 1203.722656 981.820312 1202.078125 981.296875 1200.433594 981.359375 C 1198.855469 981.359375 1197.015625 980.835938 1195.832031 980.046875 C 1194.582031 979.191406 1192.738281 978.730469 1190.699219 978.730469 C 1188.597656 978.730469 1187.28125 978.335938 1186.425781 977.546875 C 1185.679688 976.757812 1183.816406 976.210938 1180.835938 975.902344 C 1177.746094 975.574219 1176.035156 975.046875 1175.117188 974.125 C 1174.128906 973.140625 1172.945312 972.8125 1170.316406 972.8125 C 1168.011719 972.8125 1166.238281 972.351562 1164.921875 971.496094 C 1163.671875 970.640625 1161.898438 970.179688 1159.988281 970.179688 C 1157.820312 970.246094 1156.636719 969.851562 1155.714844 968.867188 C 1154.664062 967.746094 1153.609375 967.484375 1150.125 967.550781 C 1146.707031 967.617188 1145.589844 967.351562 1144.535156 966.300781 C 1143.550781 965.316406 1142.167969 964.921875 1138.878906 964.789062 C 1135.59375 964.65625 1134.078125 964.261719 1133.027344 963.277344 C 1131.910156 962.289062 1130.398438 961.894531 1126.515625 961.699219 C 1122.898438 961.5 1121.058594 961.105469 1119.875 960.183594 C 1118.625 959.199219 1117.113281 958.9375 1113.296875 959 C 1109.484375 959 1107.90625 958.671875 1106.394531 957.6875 C 1104.816406 956.632812 1103.304688 956.371094 1099.160156 956.371094 C 1094.886719 956.4375 1093.570312 956.171875 1092.058594 955.054688 C 1090.542969 953.9375 1089.296875 953.742188 1083.179688 953.742188 C 1077.195312 953.742188 1075.75 953.542969 1073.511719 952.292969 C 1071.277344 951.042969 1069.566406 950.847656 1062.003906 950.585938 C 1054.96875 950.386719 1052.863281 950.058594 1051.875 949.203125 C 1050.890625 948.347656 1048.652344 948.085938 1040.039062 947.820312 C 1031.425781 947.558594 1029.121094 947.230469 1027.808594 946.308594 C 1026.296875 945.257812 1023.664062 945.191406 996.898438 945.191406 C 968.160156 945.125 967.636719 945.191406 966.320312 946.507812 C 965.597656 947.230469 964.347656 947.886719 963.558594 947.820312 C 962.636719 947.820312 960.402344 949.53125 957.308594 952.621094 C 954.679688 955.1875 952.246094 957.816406 951.984375 958.34375 C 951.71875 958.871094 951.0625 960.054688 950.535156 960.972656 C 950.011719 961.894531 949.550781 964.394531 949.550781 966.5625 C 949.484375 969.523438 949.8125 970.96875 950.867188 972.351562 C 951.589844 973.335938 952.179688 974.324219 952.179688 974.652344 C 952.179688 974.917969 953.035156 976.496094 954.152344 978.269531 C 956.0625 981.230469 956.257812 981.359375 959.085938 981.359375 C 961.652344 981.359375 962.441406 981.753906 964.808594 983.992188 C 966.386719 985.4375 968.160156 986.621094 968.753906 986.621094 C 969.410156 986.621094 970.59375 987.34375 971.382812 988.265625 C 972.238281 989.121094 973.621094 989.84375 974.539062 989.84375 C 975.460938 989.84375 976.777344 990.5 977.5 991.226562 C 978.421875 992.144531 979.605469 992.539062 981.445312 992.539062 C 983.285156 992.539062 984.46875 992.933594 985.390625 993.855469 C 986.378906 994.84375 987.496094 995.238281 989.796875 995.171875 C 992.164062 995.171875 993.152344 995.5 993.742188 996.421875 C 994.335938 997.273438 995.714844 997.800781 998.347656 998.066406 C 1001.238281 998.394531 1002.292969 998.789062 1002.816406 999.773438 C 1003.410156 1000.890625 1004.132812 1001.089844 1007.882812 1001.089844 C 1011.5625 1001.023438 1012.617188 1001.285156 1013.667969 1002.40625 C 1014.65625 1003.390625 1015.773438 1003.71875 1017.941406 1003.71875 C 1020.113281 1003.71875 1021.230469 1004.050781 1022.21875 1005.035156 C 1023.269531 1006.152344 1024.320312 1006.417969 1027.808594 1006.351562 C 1031.097656 1006.285156 1032.34375 1006.546875 1033.199219 1007.46875 C 1033.921875 1008.257812 1035.765625 1008.847656 1038.789062 1009.179688 C 1042.011719 1009.507812 1043.589844 1010.03125 1044.378906 1010.953125 C 1045.300781 1011.941406 1046.417969 1012.269531 1048.984375 1012.269531 C 1051.351562 1012.269531 1053.125 1012.730469 1054.441406 1013.585938 C 1055.757812 1014.4375 1057.53125 1014.898438 1059.832031 1014.898438 C 1062.660156 1014.898438 1063.449219 1015.164062 1063.976562 1016.214844 C 1064.570312 1017.332031 1065.292969 1017.53125 1069.238281 1017.53125 C 1073.117188 1017.53125 1073.972656 1017.726562 1074.628906 1018.84375 C 1075.289062 1019.832031 1076.207031 1020.160156 1078.445312 1020.160156 C 1080.550781 1020.09375 1081.996094 1020.554688 1083.375 1021.605469 C 1084.824219 1022.726562 1086.46875 1023.1875 1089.625 1023.382812 C 1092.519531 1023.515625 1094.425781 1024.039062 1095.542969 1024.894531 C 1096.726562 1025.75 1098.238281 1026.144531 1100.804688 1026.078125 C 1103.632812 1026.011719 1104.683594 1026.34375 1105.734375 1027.394531 C 1106.722656 1028.445312 1107.839844 1028.710938 1110.339844 1028.710938 C 1112.640625 1028.710938 1114.152344 1029.039062 1115.402344 1030.023438 C 1116.652344 1030.878906 1118.230469 1031.339844 1120.203125 1031.339844 C 1122.375 1031.339844 1123.6875 1031.734375 1125.136719 1032.984375 C 1126.648438 1034.234375 1127.898438 1034.628906 1130.199219 1034.628906 C 1132.238281 1034.628906 1133.816406 1035.089844 1134.605469 1035.8125 C 1135.394531 1036.535156 1137.234375 1036.996094 1139.867188 1037.191406 C 1142.824219 1037.390625 1144.074219 1037.71875 1144.667969 1038.640625 C 1145.324219 1039.558594 1146.3125 1039.890625 1148.613281 1039.890625 C 1150.847656 1039.824219 1152.097656 1040.21875 1152.886719 1041.007812 C 1153.609375 1041.796875 1155.453125 1042.324219 1158.609375 1042.71875 C 1161.832031 1043.046875 1163.410156 1043.507812 1163.605469 1044.164062 C 1163.804688 1044.691406 1165.183594 1045.480469 1166.699219 1045.875 C 1168.933594 1046.398438 1169.328125 1046.664062 1168.671875 1047.320312 C 1168.210938 1047.78125 1165.25 1048.242188 1162.09375 1048.371094 C 1158.015625 1048.570312 1155.78125 1048.964844 1154.398438 1049.820312 C 1152.953125 1050.738281 1151.113281 1051.070312 1147.824219 1051.070312 C 1144.535156 1051.132812 1142.695312 1051.464844 1141.246094 1052.320312 C 1139.734375 1053.304688 1137.628906 1053.632812 1131.976562 1053.765625 C 1125.726562 1053.960938 1124.414062 1054.226562 1123.164062 1055.34375 C 1121.914062 1056.460938 1120.53125 1056.722656 1113.035156 1056.988281 C 1106.261719 1057.25 1104.09375 1057.578125 1102.777344 1058.5 C 1101.460938 1059.355469 1099.75 1059.617188 1094.6875 1059.617188 C 1089.625 1059.617188 1087.78125 1059.882812 1085.679688 1060.933594 C 1083.769531 1061.855469 1081.734375 1062.25 1078.246094 1062.25 C 1074.628906 1062.25 1073.050781 1062.578125 1071.539062 1063.5625 C 1070.160156 1064.484375 1068.449219 1064.878906 1065.949219 1064.878906 C 1063.582031 1064.878906 1061.476562 1065.339844 1059.832031 1066.195312 C 1058.453125 1066.984375 1055.429688 1067.707031 1052.601562 1067.902344 C 1049.707031 1068.167969 1047.40625 1068.757812 1046.617188 1069.417969 C 1045.828125 1070.140625 1043.65625 1070.601562 1039.84375 1070.796875 C 1035.632812 1071.0625 1033.988281 1071.390625 1033.199219 1072.308594 C 1032.34375 1073.230469 1031.09375 1073.492188 1027.675781 1073.429688 C 1024.386719 1073.429688 1023.007812 1073.691406 1022.152344 1074.613281 C 1021.296875 1075.402344 1019.519531 1075.796875 1015.574219 1076.058594 C 1011.957031 1076.257812 1009.789062 1076.714844 1009 1077.441406 C 1008.210938 1078.097656 1005.910156 1078.6875 1002.949219 1078.953125 C 999.726562 1079.214844 997.621094 1079.742188 996.375 1080.660156 C 994.992188 1081.714844 993.609375 1082.042969 989.996094 1081.976562 C 986.378906 1081.910156 984.996094 1082.242188 983.550781 1083.292969 C 982.234375 1084.277344 980.789062 1084.609375 977.628906 1084.609375 C 974.539062 1084.542969 973.09375 1084.871094 971.710938 1085.921875 C 970.398438 1086.910156 968.949219 1087.238281 966.121094 1087.238281 C 963.625 1087.238281 961.847656 1087.632812 960.730469 1088.355469 C 959.679688 1089.144531 957.246094 1089.671875 953.824219 1089.933594 C 949.8125 1090.199219 948.105469 1090.65625 946.589844 1091.710938 C 944.945312 1092.960938 943.761719 1093.222656 939.355469 1093.15625 C 935.214844 1093.15625 933.703125 1093.421875 932.125 1094.472656 C 930.546875 1095.523438 929.03125 1095.789062 924.5625 1095.789062 C 920.285156 1095.789062 918.578125 1096.050781 917.328125 1096.90625 C 916.078125 1097.824219 913.90625 1098.15625 908.710938 1098.417969 C 903.515625 1098.679688 901.347656 1099.007812 900.492188 1099.800781 C 899.503906 1100.652344 897.53125 1100.984375 891.941406 1101.113281 C 885.695312 1101.3125 884.378906 1101.574219 883.128906 1102.691406 C 881.878906 1103.808594 880.5 1104.074219 873.332031 1104.335938 C 866.886719 1104.597656 864.71875 1104.929688 863.402344 1105.847656 C 862.019531 1106.769531 860.246094 1106.96875 851.695312 1106.96875 C 843.277344 1106.96875 841.175781 1107.164062 838.542969 1108.214844 C 835.847656 1109.335938 833.414062 1109.53125 819.667969 1109.792969 C 806.847656 1109.992188 803.425781 1110.253906 801.386719 1111.109375 C 799.21875 1112.097656 793.363281 1112.226562 739.242188 1112.226562 C 681.632812 1112.164062 679.53125 1112.164062 676.964844 1110.914062 C 674.597656 1109.792969 672.820312 1109.664062 660.195312 1109.664062 C 647.4375 1109.664062 645.792969 1109.53125 643.097656 1108.347656 C 640.53125 1107.164062 638.691406 1106.96875 629.746094 1106.96875 C 621 1106.96875 619.027344 1106.769531 616.925781 1105.71875 C 615.082031 1104.796875 612.582031 1104.402344 606.597656 1104.203125 C 600.285156 1104.007812 598.3125 1103.679688 596.734375 1102.691406 C 595.222656 1101.707031 593.183594 1101.378906 588.1875 1101.179688 C 583.320312 1100.984375 581.28125 1100.589844 580.359375 1099.800781 C 579.503906 1099.007812 577.464844 1098.679688 572.46875 1098.550781 C 567.207031 1098.351562 565.5625 1098.089844 564.511719 1097.101562 C 563.523438 1096.183594 561.882812 1095.851562 557.871094 1095.65625 C 554.121094 1095.523438 552.148438 1095.128906 551.292969 1094.40625 C 550.4375 1093.683594 548.335938 1093.222656 544.453125 1093.023438 C 540.574219 1092.761719 538.273438 1092.300781 536.890625 1091.445312 C 535.640625 1090.722656 533.273438 1090.132812 530.316406 1090 C 527.421875 1089.804688 524.988281 1089.277344 523.738281 1088.488281 C 522.359375 1087.632812 520.449219 1087.304688 517.292969 1087.238281 C 513.941406 1087.238281 512.492188 1086.910156 511.046875 1085.921875 C 509.730469 1084.9375 508.285156 1084.542969 505.457031 1084.609375 C 502.496094 1084.609375 501.445312 1084.34375 500.523438 1083.292969 C 499.605469 1082.175781 498.617188 1081.976562 494.933594 1081.976562 C 491.316406 1081.976562 490.332031 1081.714844 489.34375 1080.660156 C 488.492188 1079.675781 487.042969 1079.28125 483.296875 1078.953125 C 480.203125 1078.6875 477.902344 1078.097656 477.113281 1077.441406 C 476.390625 1076.78125 474.351562 1076.320312 471.851562 1076.125 C 469.222656 1075.992188 467.25 1075.46875 466.195312 1074.613281 C 465.011719 1073.757812 463.5 1073.363281 460.9375 1073.429688 C 458.109375 1073.492188 457.054688 1073.164062 456.003906 1072.113281 C 455.015625 1071.125 453.898438 1070.796875 451.730469 1070.796875 C 449.691406 1070.796875 448.441406 1070.46875 447.652344 1069.679688 C 446.929688 1068.890625 445.019531 1068.296875 442.0625 1067.96875 C 438.972656 1067.640625 437.195312 1067.113281 436.273438 1066.195312 C 435.421875 1065.339844 434.039062 1064.878906 432.132812 1064.878906 C 430.421875 1064.878906 428.710938 1064.351562 427.527344 1063.5625 C 426.476562 1062.707031 424.765625 1062.183594 423.121094 1062.183594 C 421.542969 1062.183594 420.03125 1061.789062 419.242188 1061.066406 C 418.585938 1060.40625 416.347656 1059.75 413.980469 1059.488281 C 411.8125 1059.222656 409.507812 1058.566406 408.984375 1058.039062 C 408.457031 1057.578125 406.683594 1056.921875 405.039062 1056.660156 C 403.394531 1056.394531 401.355469 1055.605469 400.433594 1054.882812 C 399.515625 1054.226562 397.804688 1053.699219 396.488281 1053.699219 C 395.171875 1053.699219 393.464844 1053.171875 392.34375 1052.382812 C 391.359375 1051.660156 389.78125 1051.070312 388.730469 1051.070312 C 387.742188 1051.070312 386.425781 1050.476562 385.769531 1049.753906 C 384.980469 1048.832031 383.863281 1048.4375 381.691406 1048.4375 C 379.390625 1048.4375 378.601562 1048.175781 378.074219 1047.125 C 377.679688 1046.398438 376.761719 1045.808594 375.90625 1045.808594 C 375.117188 1045.808594 373.078125 1045.085938 371.300781 1044.164062 C 369.59375 1043.242188 367.421875 1042.519531 366.371094 1042.519531 C 365.382812 1042.519531 364.066406 1041.929688 363.410156 1041.203125 C 362.820312 1040.480469 361.503906 1039.890625 360.449219 1039.890625 C 359.464844 1039.890625 357.753906 1039.296875 356.703125 1038.574219 C 355.648438 1037.851562 354.007812 1037.257812 353.085938 1037.257812 C 352.164062 1037.324219 350.851562 1036.734375 350.125 1035.945312 C 349.402344 1035.21875 347.890625 1034.496094 346.839844 1034.367188 C 345.785156 1034.167969 344.40625 1033.574219 343.878906 1032.984375 C 343.351562 1032.457031 341.707031 1031.800781 340.261719 1031.667969 C 338.816406 1031.472656 337.039062 1030.75 336.316406 1029.960938 C 335.59375 1029.234375 334.210938 1028.644531 333.160156 1028.710938 C 332.042969 1028.710938 331.121094 1028.25 330.726562 1027.394531 C 330.332031 1026.539062 329.410156 1026.078125 328.226562 1026.078125 C 327.242188 1026.144531 325.859375 1025.554688 325.136719 1024.765625 C 324.414062 1024.039062 322.835938 1023.316406 321.652344 1023.121094 C 320.53125 1022.921875 319.414062 1022.398438 319.21875 1022.003906 C 319.019531 1021.542969 317.96875 1020.882812 316.785156 1020.621094 C 315.601562 1020.292969 313.890625 1019.503906 312.96875 1018.78125 C 312.050781 1018.054688 310.867188 1017.53125 310.339844 1017.53125 C 309.8125 1017.53125 308.761719 1016.9375 308.039062 1016.214844 C 307.316406 1015.492188 306.132812 1014.898438 305.40625 1014.898438 C 304.683594 1014.898438 303.5 1014.308594 302.777344 1013.585938 C 302.054688 1012.859375 300.671875 1012.203125 299.621094 1012.269531 C 298.503906 1012.269531 297.582031 1011.808594 297.1875 1010.953125 C 296.792969 1010.164062 295.675781 1009.507812 294.359375 1009.308594 C 293.242188 1009.113281 291.730469 1008.390625 291.070312 1007.664062 C 290.480469 1006.941406 289.296875 1006.351562 288.441406 1006.351562 C 287.652344 1006.417969 286.402344 1005.757812 285.679688 1005.035156 C 284.957031 1004.3125 283.773438 1003.71875 283.046875 1003.71875 C 282.324219 1003.71875 281.140625 1003.128906 280.417969 1002.40625 C 279.695312 1001.679688 278.511719 1001.089844 277.789062 1001.089844 C 277.0625 1001.089844 275.683594 1000.367188 274.632812 999.445312 C 273.644531 998.523438 272.199219 997.800781 271.34375 997.800781 C 270.554688 997.800781 269.5 997.210938 269.042969 996.484375 C 268.648438 995.761719 267.59375 995.171875 266.738281 995.171875 C 265.949219 995.105469 263.976562 993.988281 262.332031 992.539062 C 260.6875 991.09375 258.78125 989.976562 258.058594 989.976562 C 257.335938 989.976562 256.152344 989.316406 255.429688 988.59375 C 254.703125 987.871094 253.324219 987.082031 252.273438 986.949219 C 251.285156 986.753906 249.3125 985.4375 247.867188 983.992188 C 246.417969 982.542969 244.644531 981.359375 243.921875 981.359375 C 243.195312 981.359375 241.289062 980.046875 239.644531 978.402344 C 238 976.757812 236.421875 975.441406 236.027344 975.441406 C 235.632812 975.441406 234.382812 974.785156 233.199219 973.996094 C 232.015625 973.140625 228.664062 970.117188 225.703125 967.222656 C 222.808594 964.328125 219.0625 960.84375 217.550781 959.394531 C 215.972656 958.015625 214 956.570312 213.210938 956.109375 C 212.417969 955.714844 210.777344 953.871094 209.59375 952.03125 C 208.410156 950.191406 206.433594 947.886719 205.25 946.96875 C 204.132812 945.980469 202.621094 945.191406 201.964844 945.191406 C 201.371094 945.125 200.1875 944.46875 199.398438 943.679688 C 198.609375 942.890625 197.425781 941.707031 196.769531 941.113281 C 196.109375 940.457031 195.453125 939.996094 195.257812 939.996094 C 195.058594 939.996094 194.136719 940.785156 193.152344 941.773438 Z M 193.152344 941.773438 " fill-opacity="1" fill-rule="nonzero"/></g><g clip-path="url(#18292ef652)"><path fill="#ffffff" d="M 489.472656 716.257812 C 481.132812 716.257812 472.8125 713.082031 466.445312 706.714844 L 303.617188 543.886719 C 290.898438 531.167969 290.898438 510.554688 303.617188 497.835938 L 466.445312 335.007812 C 479.164062 322.289062 499.777344 322.289062 512.496094 335.007812 C 525.210938 347.722656 525.210938 368.339844 512.496094 381.054688 L 372.6875 520.863281 L 512.496094 660.667969 C 525.210938 673.386719 525.210938 694 512.496094 706.714844 C 506.128906 713.082031 497.808594 716.257812 489.472656 716.257812 Z M 652.300781 813.957031 C 648.507812 813.957031 644.632812 813.289062 640.871094 811.871094 C 624.035156 805.554688 615.484375 786.78125 621.804688 769.941406 L 817.199219 248.886719 C 823.535156 232.035156 842.292969 223.515625 859.128906 229.835938 C 875.964844 236.152344 884.515625 254.925781 878.195312 271.765625 L 682.800781 792.820312 C 677.882812 805.894531 665.492188 813.957031 652.300781 813.957031 Z M 1010.527344 716.257812 C 1002.191406 716.257812 993.871094 713.082031 987.503906 706.714844 C 974.785156 694 974.785156 673.386719 987.503906 660.667969 L 1127.308594 520.863281 L 987.503906 381.054688 C 974.785156 368.339844 974.785156 347.722656 987.503906 335.007812 C 1000.222656 322.289062 1020.835938 322.289062 1033.550781 335.007812 L 1196.382812 497.835938 C 1209.101562 510.554688 1209.101562 531.167969 1196.382812 543.886719 L 1033.550781 706.714844 C 1027.1875 713.082031 1018.863281 716.257812 1010.527344 716.257812 Z M 1010.527344 716.257812 " fill-opacity="1" fill-rule="nonzero"/></g></svg>